<svg version="1.1" xmlns="http://www.w3.org/2000/svg" xmlns:xlink="http://www.w3.org/1999/xlink" x="0px" y="0px" viewBox="0 0 1000 1000" enable-background="new 0 0 1000 1000" xml:space="preserve" width="150px" height="150px">
<g><g><path style="fill:#fff" d="M607.8,905.4c1.3,0.1,2.6,0.2,3.9,0.2h296.7c34.7,0,62.9-28.2,62.9-62.9V154.9c0-34.7-28.2-62.9-62.9-62.9H611.7c-1.3,0-2.6,0.1-3.9,0.2V10L28.7,87.3v823.4L607.8,990V905.4z M607.8,128.3c1.3-0.2,2.6-0.4,3.9-0.4h296.7c14.9,0,27,12.1,27,27v687.8c0,14.9-12.1,27-27,27H611.7c-1.3,0-2.6-0.2-3.9-0.4V128.3z M122.2,558.8c-19.6-0.5-38.7-6.5-48.1-12.4l7.7-34c10.3,5.9,26.2,11.9,42.7,12.2c18,0.3,27.6-7.5,27.6-19.7c0-11.6-8.3-18.3-29.1-26.4c-28.4-10.7-46.7-27.6-46.7-54.2c0-31.2,24.1-55.7,64.7-56.8c19.7-0.5,34.4,3.6,45,8.3l-9,34.5c-7.1-3.5-19.7-8.6-36.8-8.3c-17,0.3-25.1,8.6-25.1,18.2c0,11.8,9.7,16.9,32.1,25.9c31.1,12.1,45.9,29.5,45.9,56.1C193,533.8,170.1,560.1,122.2,558.8z M382.8,597c-28-9.2-51.1-18.4-76.6-30.1c-4.2-1.8-8.7-2.8-13.2-3.2c-42.1-4-80.7-36.5-80.7-98.5c0-56.9,34.7-100.6,90.5-102.1c59-1.6,92.1,43.7,92.1,98.1c0,45.2-20.9,76.7-46.7,87.9v1.2c15.1,4.7,32,8.7,47.6,12.3L382.8,597z M555.4,567.3l-130.6-3.4V363.2l46.5-1.2v164.6l84.2,1.4V567.3z"/><path style="fill:#fff" d="M301.7,398c-29.1,0.5-45.6,29.8-45.6,65.7c-0.3,36.5,16.8,64.7,45.3,65.2c29.2,0.5,46.5-27.5,46.5-66.1C347.9,427,331.2,397.5,301.7,398z"/><path style="fill:#fff" d="M755.5,663.1c69.8,0,124.4-24.9,124.4-56.8v-35.8c0-5.1-1.5-10.3-4.4-15.3l-0.1-0.2c2.9-4.9,4.6-10,4.6-15.3v-35.8c0-5.1-1.5-10.3-4.4-15.3l-0.4-0.6c3.1-5,4.8-10.3,4.8-15.8v-35.8c0-4.8-1.3-9.8-4-14.7l-0.3-0.6c0.8-2.2,1.3-4.4,1.3-6.8c0-28.9-62.6-44.6-121.4-44.6c-58.8,0-121.3,15.6-121.3,44.6c0,2.4,0.6,4.6,1.4,6.8l-0.3,0.6c-2.7,4.9-4,9.8-4,14.7V472c0,5.5,1.7,10.8,4.8,15.8l-0.4,0.7c-2.9,5.1-4.4,10.2-4.4,15.3v35.8c0,5.3,1.6,10.5,4.6,15.3l-0.1,0.2c-2.9,5.1-4.4,10.2-4.4,15.3v35.8C631.2,638.2,685.8,663.1,755.5,663.1z M644.5,442.2c20,16.9,66.2,25.7,111,25.7c44.9,0,91.1-8.8,111.1-25.7V472c0,20.5-45.6,43.4-111.1,43.4c-65.4,0-111-22.9-111-43.4V442.2z M644.5,506c20.4,18.7,62.4,30.6,111,30.6c48.7,0,90.7-11.9,111.1-30.7v33.7c0,20.5-45.6,43.4-111.1,43.4c-65.4,0-111-22.9-111-43.4V506z M644.5,572.7c20.4,18.7,62.4,30.6,111,30.6c48.7,0,90.7-11.9,111.1-30.7v33.7c0,20.5-45.6,43.4-111.1,43.4c-65.4,0-111-22.9-111-43.4V572.7z"/></g><g></g><g></g><g></g><g></g><g></g><g></g><g></g><g></g><g></g><g></g><g></g><g></g><g></g><g></g><g></g></g>
</svg>